<svg width="24" height="24" viewBox="0 0 24 24" fill="none" xmlns="http://www.w3.org/2000/svg">
<g clip-path="url(#clip0_897_2124)">
<path fill-rule="evenodd" clip-rule="evenodd" d="M6.84241 0.91212C6.55833 1.21505 6.3367 1.57097 6.19018 1.95956L1.11714 15.4081C0.821126 16.1927 0.848884 17.0628 1.19431 17.8269C1.53973 18.591 2.17453 19.1867 2.95908 19.4828L13.7164 23.5423C14.105 23.6888 14.5186 23.7574 14.9337 23.7441C15.3488 23.7308 15.7572 23.6359 16.1356 23.4647C16.514 23.2936 16.8549 23.0495 17.139 22.7466C17.4231 22.4437 17.6447 22.0878 17.7913 21.6992L22.8654 8.25073C23.0122 7.86226 23.081 7.44867 23.0679 7.03361C23.0549 6.61854 22.9602 6.21011 22.7892 5.83164C22.6183 5.45317 22.3745 5.11207 22.0718 4.82782C21.769 4.54358 21.4132 4.32174 21.0248 4.17499L10.265 0.116469C9.87643 -0.0300895 9.46279 -0.0986724 9.04771 -0.0853637C8.63263 -0.072055 8.22424 0.0228843 7.84585 0.194034C7.46746 0.365183 7.1265 0.609189 6.84241 0.91212ZM8.98098 5.16279C9.02099 5.05681 9.0815 4.95974 9.15903 4.87715C9.23657 4.79455 9.32961 4.72804 9.43286 4.68142C9.5361 4.63479 9.64752 4.60896 9.76075 4.60541C9.87398 4.60185 9.9868 4.62064 10.0928 4.6607L18.1581 7.70299C18.3721 7.78369 18.5454 7.94611 18.6396 8.15451C18.7339 8.36292 18.7415 8.60023 18.6608 8.81426C18.5801 9.02829 18.4177 9.2015 18.2093 9.29577C18.0009 9.39005 17.7636 9.39768 17.5496 9.31698L9.48307 6.27457C9.37709 6.23456 9.28003 6.17406 9.19743 6.09652C9.11484 6.01899 9.04833 5.92594 9.0017 5.8227C8.95508 5.71945 8.92925 5.60803 8.92569 5.4948C8.92214 5.38157 8.94092 5.26875 8.98098 5.16279ZM7.66202 8.66029C7.74259 8.44627 7.90487 8.27301 8.11317 8.17862C8.32147 8.08423 8.55873 8.07643 8.77277 8.15694L16.8393 11.1994C16.9453 11.2393 17.0425 11.2998 17.1251 11.3773C17.2078 11.4548 17.2744 11.5478 17.3212 11.6511C17.3679 11.7543 17.3938 11.8658 17.3975 11.979C17.4012 12.0923 17.3825 12.2052 17.3425 12.3113C17.3025 12.4173 17.2421 12.5144 17.1646 12.5971C17.0871 12.6798 16.994 12.7464 16.8908 12.7932C16.7875 12.8399 16.6761 12.8658 16.5628 12.8695C16.4495 12.8731 16.3367 12.8545 16.2306 12.8145L8.16422 9.77093C8.05824 9.73092 7.96118 9.67042 7.87858 9.59288C7.79599 9.51535 7.72948 9.4223 7.68285 9.31906C7.63623 9.21581 7.6104 9.10439 7.60684 8.99116C7.60329 8.87793 7.62196 8.76626 7.66202 8.66029ZM6.34317 12.1567C6.42397 11.9429 6.58632 11.7699 6.79457 11.6757C7.00281 11.5816 7.23992 11.5739 7.45381 11.6544L12.8338 13.6826C12.9399 13.7225 13.037 13.783 13.1197 13.8605C13.2024 13.938 13.269 14.031 13.3157 14.1343C13.3624 14.2375 13.3884 14.349 13.392 14.4623C13.3957 14.5755 13.377 14.6884 13.337 14.7945C13.2971 14.9005 13.2366 14.9977 13.1591 15.0803C13.0816 15.163 12.9886 15.2296 12.8853 15.2764C12.7821 15.3231 12.6706 15.349 12.5573 15.3527C12.4441 15.3564 12.3312 15.3377 12.2251 15.2977L6.84537 13.2673C6.63158 13.1865 6.45861 13.0241 6.36445 12.8159C6.27028 12.6076 6.26263 12.3705 6.34317 12.1567Z" fill="#0D0D0D"/>
</g>
<defs>
<clipPath id="clip0_897_2124">
<rect width="24" height="24" fill="white"/>
</clipPath>
</defs>
</svg>
